<?xml version="1.0" encoding="iso-8859-1"?>
<!-- Generator: Adobe Illustrator 18.0.0, SVG Export Plug-In . SVG Version: 6.00 Build 0)  -->
<!DOCTYPE svg PUBLIC "-//W3C//DTD SVG 1.1//EN" "http://www.w3.org/Graphics/SVG/1.1/DTD/svg11.dtd">
<svg version="1.1" id="Capa_1" xmlns="http://www.w3.org/2000/svg" xmlns:xlink="http://www.w3.org/1999/xlink" x="0px" y="0px"
	 viewBox="0 0 347.873 347.873" style="enable-background:new 0 0 347.873 347.873;" xml:space="preserve">
<g>
	<rect x="64.148" y="76.604" width="219.576" height="34.249"/>
	<rect x="64.148" y="136.389" width="150.046" height="80.215"/>
	<rect x="242.927" y="136.389" width="40.798" height="80.215"/>
	<path d="M337.873,33.937H10c-5.523,0-10,4.477-10,10v210.393c0,5.523,4.477,10,10,10h114.979
		c-4.407,21.476-14.601,32.572-14.674,32.651c-2.793,2.885-3.59,7.16-2.023,10.857c1.566,3.697,5.191,6.099,9.207,6.099h112.895
		c4.016,0,7.641-2.402,9.207-6.099c1.566-3.697,0.77-7.973-2.023-10.857c-0.117-0.122-10.279-11.174-14.676-32.651h114.981
		c5.523,0,10-4.477,10-10V43.937C347.873,38.414,343.396,33.937,337.873,33.937z M327.873,244.329h-16.311v-2.816
		c0-5.523-4.477-10-10-10s-10,4.477-10,10v2.816h-10.439v-2.816c0-5.523-4.477-10-10-10c-5.522,0-10,4.477-10,10v2.816h-49.782
		h-74.809H20V53.937h307.873V244.329z"/>
</g>
<g>
</g>
<g>
</g>
<g>
</g>
<g>
</g>
<g>
</g>
<g>
</g>
<g>
</g>
<g>
</g>
<g>
</g>
<g>
</g>
<g>
</g>
<g>
</g>
<g>
</g>
<g>
</g>
<g>
</g>
</svg>
