<?xml version="1.0" encoding="iso-8859-1"?>
<!-- Generator: Adobe Illustrator 19.0.0, SVG Export Plug-In . SVG Version: 6.00 Build 0)  -->
<svg version="1.1" id="Layer_1" xmlns="http://www.w3.org/2000/svg" xmlns:xlink="http://www.w3.org/1999/xlink" x="0px" y="0px"
	 viewBox="0 0 512 512" style="enable-background:new 0 0 512 512;" xml:space="preserve">
<g>
	<g>
		<path d="M435.574,25.653H25.119C11.268,25.653,0,36.922,0,50.772v359.148c0,13.851,11.268,25.119,25.119,25.119h273.637
			c4.428,0,8.017-3.589,8.017-8.017c0-4.427-3.588-8.017-8.017-8.017H25.119c-5.01,0-9.086-4.076-9.086-9.086V110.096h316.928
			c4.428,0,8.017-3.589,8.017-8.017s-3.588-8.017-8.017-8.017H16.033v-43.29c0-5.01,4.076-9.086,9.086-9.086h410.455
			c5.01,0,9.086,4.076,9.086,9.086v43.29h-26.188c-4.428,0-8.017,3.589-8.017,8.017s3.588,8.017,8.017,8.017h26.188v163.006
			c0,4.427,3.588,8.017,8.017,8.017c4.428,0,8.017-3.589,8.017-8.017V50.772C460.693,36.922,449.425,25.653,435.574,25.653z"/>
	</g>
</g>
<g>
	<g>
		<path d="M384.27,94.063h-17.107c-4.428,0-8.017,3.589-8.017,8.017s3.588,8.017,8.017,8.017h17.107
			c4.428,0,8.017-3.589,8.017-8.017S388.699,94.063,384.27,94.063z"/>
	</g>
</g>
<g>
	<g>
		<path d="M42.307,59.858h-0.086c-4.428,0-7.974,3.589-7.974,8.017s3.631,8.017,8.059,8.017c4.428,0,8.017-3.589,8.017-8.017
			S46.735,59.858,42.307,59.858z"/>
	</g>
</g>
<g>
	<g>
		<path d="M110.716,59.858h-0.086c-4.428,0-7.974,3.589-7.974,8.017s3.631,8.017,8.059,8.017s8.017-3.589,8.017-8.017
			S115.144,59.858,110.716,59.858z"/>
	</g>
</g>
<g>
	<g>
		<path d="M76.426,59.858H76.34c-4.428,0-7.974,3.589-7.974,8.017s3.631,8.017,8.059,8.017c4.428,0,8.017-3.589,8.017-8.017
			S80.854,59.858,76.426,59.858z"/>
	</g>
</g>
<g>
	<g>
		<path d="M418.472,59.858H144.835c-4.428,0-8.017,3.589-8.017,8.017s3.588,8.017,8.017,8.017h273.637
			c4.428,0,8.017-3.589,8.017-8.017S422.9,59.858,418.472,59.858z"/>
	</g>
</g>
<g>
	<g>
		<path d="M418.472,299.29c-51.572,0-93.528,41.956-93.528,93.528s41.956,93.528,93.528,93.528S512,444.39,512,392.818
			S470.044,299.29,418.472,299.29z M418.472,470.313c-42.731,0-77.495-34.764-77.495-77.495s34.764-77.495,77.495-77.495
			s77.495,34.764,77.495,77.495S461.203,470.313,418.472,470.313z"/>
	</g>
</g>
<g>
	<g>
		<path d="M461.228,384.802h-34.739v-34.739c0-4.427-3.588-8.017-8.017-8.017c-4.428,0-8.017,3.589-8.017,8.017v34.739h-34.739
			c-4.428,0-8.017,3.589-8.017,8.017c0,4.427,3.588,8.017,8.017,8.017h34.739v34.739c0,4.427,3.588,8.017,8.017,8.017
			c4.428,0,8.017-3.589,8.017-8.017v-34.739h34.739c4.428,0,8.017-3.589,8.017-8.017
			C469.244,388.391,465.656,384.802,461.228,384.802z"/>
	</g>
</g>
<g>
	<g>
		<path d="M93.528,153.921c-13.851,0-25.119,11.268-25.119,25.119s11.268,25.119,25.119,25.119s25.119-11.268,25.119-25.119
			S107.379,153.921,93.528,153.921z M93.528,188.125c-5.01,0-9.086-4.076-9.086-9.086s4.076-9.086,9.086-9.086
			s9.086,4.076,9.086,9.086S98.538,188.125,93.528,188.125z"/>
	</g>
</g>
<g>
	<g>
		<path d="M384.267,153.921H144.835c-4.428,0-8.017,3.589-8.017,8.017s3.588,8.017,8.017,8.017h239.432
			c4.428,0,8.017-3.589,8.017-8.017S388.696,153.921,384.267,153.921z"/>
	</g>
</g>
<g>
	<g>
		<path d="M161.937,188.125h-17.102c-4.428,0-8.017,3.589-8.017,8.017s3.588,8.017,8.017,8.017h17.102
			c4.428,0,8.017-3.589,8.017-8.017S166.366,188.125,161.937,188.125z"/>
	</g>
</g>
<g>
	<g>
		<path d="M264.551,188.125h-17.102c-4.428,0-8.017,3.589-8.017,8.017s3.588,8.017,8.017,8.017h17.102
			c4.428,0,8.017-3.589,8.017-8.017S268.98,188.125,264.551,188.125z"/>
	</g>
</g>
<g>
	<g>
		<path d="M213.244,188.125h-17.102c-4.428,0-8.017,3.589-8.017,8.017s3.588,8.017,8.017,8.017h17.102
			c4.428,0,8.017-3.589,8.017-8.017S217.673,188.125,213.244,188.125z"/>
	</g>
</g>
<g>
	<g>
		<path d="M93.528,239.432c-13.851,0-25.119,11.268-25.119,25.119s11.268,25.119,25.119,25.119s25.119-11.268,25.119-25.119
			S107.379,239.432,93.528,239.432z M93.528,273.637c-5.01,0-9.086-4.076-9.086-9.086s4.076-9.086,9.086-9.086
			s9.086,4.076,9.086,9.086S98.538,273.637,93.528,273.637z"/>
	</g>
</g>
<g>
	<g>
		<path d="M384.267,239.432H144.835c-4.428,0-8.017,3.589-8.017,8.017s3.588,8.017,8.017,8.017h239.432
			c4.428,0,8.017-3.589,8.017-8.017S388.696,239.432,384.267,239.432z"/>
	</g>
</g>
<g>
	<g>
		<path d="M161.937,273.637h-17.102c-4.428,0-8.017,3.589-8.017,8.017s3.588,8.017,8.017,8.017h17.102
			c4.428,0,8.017-3.589,8.017-8.017S166.366,273.637,161.937,273.637z"/>
	</g>
</g>
<g>
	<g>
		<path d="M264.551,273.637h-17.102c-4.428,0-8.017,3.589-8.017,8.017s3.588,8.017,8.017,8.017h17.102
			c4.428,0,8.017-3.589,8.017-8.017S268.98,273.637,264.551,273.637z"/>
	</g>
</g>
<g>
	<g>
		<path d="M213.244,273.637h-17.102c-4.428,0-8.017,3.589-8.017,8.017s3.588,8.017,8.017,8.017h17.102
			c4.428,0,8.017-3.589,8.017-8.017S217.673,273.637,213.244,273.637z"/>
	</g>
</g>
<g>
	<g>
		<path d="M93.528,324.944c-13.851,0-25.119,11.268-25.119,25.119c0,13.851,11.268,25.119,25.119,25.119
			s25.119-11.268,25.119-25.119C118.647,336.212,107.379,324.944,93.528,324.944z M93.528,359.148c-5.01,0-9.086-4.076-9.086-9.086
			c0-5.01,4.076-9.086,9.086-9.086s9.086,4.076,9.086,9.086C102.614,355.073,98.538,359.148,93.528,359.148z"/>
	</g>
</g>
<g>
	<g>
		<path d="M307.307,324.944H144.835c-4.428,0-8.017,3.589-8.017,8.017s3.588,8.017,8.017,8.017h162.472
			c4.428,0,8.017-3.589,8.017-8.017S311.735,324.944,307.307,324.944z"/>
	</g>
</g>
<g>
	<g>
		<path d="M161.937,359.148h-17.102c-4.428,0-8.017,3.589-8.017,8.017c0,4.427,3.588,8.017,8.017,8.017h17.102
			c4.428,0,8.017-3.589,8.017-8.017C169.954,362.738,166.366,359.148,161.937,359.148z"/>
	</g>
</g>
<g>
	<g>
		<path d="M264.551,359.148h-17.102c-4.428,0-8.017,3.589-8.017,8.017c0,4.427,3.588,8.017,8.017,8.017h17.102
			c4.428,0,8.017-3.589,8.017-8.017C272.568,362.738,268.98,359.148,264.551,359.148z"/>
	</g>
</g>
<g>
	<g>
		<path d="M213.244,359.148h-17.102c-4.428,0-8.017,3.589-8.017,8.017c0,4.427,3.588,8.017,8.017,8.017h17.102
			c4.428,0,8.017-3.589,8.017-8.017C221.261,362.738,217.673,359.148,213.244,359.148z"/>
	</g>
</g>
<g>
</g>
<g>
</g>
<g>
</g>
<g>
</g>
<g>
</g>
<g>
</g>
<g>
</g>
<g>
</g>
<g>
</g>
<g>
</g>
<g>
</g>
<g>
</g>
<g>
</g>
<g>
</g>
<g>
</g>
</svg>
